<svg width="25" height="26" viewBox="0 0 25 26" fill="none" xmlns="http://www.w3.org/2000/svg">
<rect x="4.95917" y="10.0421" width="14.8237" height="13.6869" fill="white"/>
<path d="M17.7084 6.80237H7.29247C7.29247 6.80237 0 12.5723 0 19.3044C0 23.1495 3.13569 25.0743 5.2081 25.0743H19.7919C21.8731 25.0743 25 23.1507 25 19.3044C25.0011 12.5723 17.7087 6.80237 17.7087 6.80237H17.7084ZM13.5405 20.168V21.7081H11.4593L11.4604 20.1731C9.92708 19.9099 8.96277 19.036 8.89484 17.7673H10.6987C10.7867 18.4335 11.5139 18.8623 12.5661 18.8623C13.5349 18.8623 14.222 18.4284 14.222 17.8095C14.222 17.2831 13.7777 16.9829 12.6831 16.7567L11.5228 16.5274C9.89815 16.2138 9.09975 15.4324 9.09975 14.1771C9.09975 12.9218 10.0062 12.016 11.4482 11.7189V10.1695H13.5294V11.7219C14.938 12.0119 15.8756 12.8981 15.9212 14.0908H14.1796C14.0917 13.441 13.4358 13.0061 12.535 13.0061C11.6342 13.0061 10.9838 13.406 10.9838 14.0321C10.9838 14.54 11.4081 14.8217 12.4548 15.0376L13.5294 15.2484C15.3222 15.5959 16.0949 16.3012 16.0949 17.5884C16.0949 18.9651 15.1373 19.8863 13.5405 20.168L13.5405 20.168Z" fill="#4562F8"/>
<path d="M17.7084 0.956157H14.8298C14.2352 0.347504 13.3878 0 12.5003 0C11.6128 0 10.7655 0.347504 10.1708 0.956157H7.29227C6.9482 0.958213 6.62639 1.11654 6.43263 1.37975C6.23999 1.64295 6.1999 1.97709 6.32573 2.27216L7.29227 4.80137L17.7082 4.8024L18.6747 2.27319V2.27216C18.8005 1.97709 18.7604 1.64295 18.5678 1.37975C18.3741 1.11655 18.0522 0.95821 17.7082 0.956157L17.7084 0.956157Z" fill="#4562F8"/>
</svg>
