<svg width="25" height="25" viewBox="0 0 25 25" fill="none" xmlns="http://www.w3.org/2000/svg">
<path d="M25 12.5C25 5.60553 19.3945 -4.90051e-07 12.5 -1.09278e-06C5.60553 -1.69552e-06 3.60287e-06 5.60552 3.00013e-06 12.5C2.3974e-06 19.3945 5.60553 25 12.5 25C19.3945 25 25 19.3945 25 12.5ZM11.7897 19.5005L7.23684 14.9476C7.05284 14.7636 6.94695 14.5005 6.94695 14.2373C6.94695 13.9742 7.0518 13.7377 7.23684 13.527C7.63158 13.1323 8.26274 13.1323 8.63179 13.527L11.4997 16.3949L11.4997 6.21095C11.4997 5.65789 11.9468 5.21073 12.4999 5.21073C13.0529 5.21073 13.5001 5.65789 13.5001 6.21095L13.5001 16.3949L16.3425 13.5259C16.7372 13.1312 17.3684 13.1312 17.7374 13.5259C18.1322 13.9207 18.1322 14.5518 17.7374 14.9209L13.1845 19.4738C13.0005 19.6578 12.7374 19.7637 12.4742 19.7637C12.21 19.7637 11.9736 19.6845 11.7896 19.5005L11.7897 19.5005Z" fill="#F87045"/>
</svg>
