<svg width="25" height="25" viewBox="0 0 25 25" fill="none" xmlns="http://www.w3.org/2000/svg">
<circle cx="12.4839" cy="11.9032" r="11.9032" fill="#F5CF40"/>
<circle cx="12.4839" cy="11.9032" r="11.9032" stroke="#232323"/>
<path d="M12.4839 18.8468C9.01198 18.8468 5.93714 16.6646 5.04424 13.5399C4.99464 13.3911 5.04424 13.2423 5.14343 13.0935C5.24262 12.9943 5.39141 12.8951 5.54021 12.8951H19.4273C19.5761 12.8951 19.7249 12.9447 19.8241 13.0935C19.9233 13.2423 19.9233 13.3911 19.9233 13.5399C19.0305 16.6645 15.9555 18.8468 12.4836 18.8468H12.4839ZM6.23456 13.8871C7.2265 16.2678 9.65666 17.8549 12.4839 17.8549C15.3112 17.8549 17.741 16.2678 18.7333 13.8871H6.23456Z" fill="#232323"/>
<path d="M10.5001 10.4153C10.2026 10.4153 10.0042 10.2169 10.0042 9.91929C10.0042 9.12574 9.35944 8.43139 8.51628 8.43139C7.67312 8.43139 7.02837 9.07613 7.02837 9.91929C7.02837 10.2169 6.82999 10.4153 6.53241 10.4153C6.23483 10.4153 6.03644 10.2169 6.03644 9.91929C6.03644 8.58016 7.12757 7.43945 8.51628 7.43945C9.90499 7.43945 10.9961 8.53058 10.9961 9.91929C10.9961 10.2169 10.7977 10.4153 10.5001 10.4153Z" fill="#232323"/>
<path d="M18.4356 10.4153C18.1381 10.4153 17.9397 10.2169 17.9397 9.91929C17.9397 9.12574 17.2949 8.43139 16.4518 8.43139C15.6086 8.43139 14.9639 9.07613 14.9639 9.91929C14.9639 10.2169 14.7655 10.4153 14.4679 10.4153C14.1703 10.4153 13.9719 10.2169 13.9719 9.91929C13.9719 8.58016 15.0631 7.43945 16.4518 7.43945C17.8405 7.43945 18.9316 8.53058 18.9316 9.91929C18.9316 10.2169 18.7332 10.4153 18.4356 10.4153Z" fill="#232323"/>
<circle cx="12.5" cy="12.5" r="11.75" stroke="#232323" stroke-width="1.5"/>
</svg>
