<svg width="25" height="24" viewBox="0 0 25 24" fill="none" xmlns="http://www.w3.org/2000/svg">
<path fill-rule="evenodd" clip-rule="evenodd" d="M12.5 0C12.9977 0 13.4523 0.282569 13.6726 0.728898L16.827 7.1204L23.8804 8.14532C24.3729 8.21689 24.7822 8.56189 24.936 9.03526C25.0898 9.50862 24.9615 10.0283 24.6051 10.3757L19.5012 15.3508L20.706 22.3757C20.7902 22.8663 20.5885 23.3621 20.1858 23.6546C19.7832 23.9472 19.2493 23.9857 18.8088 23.7541L12.5 20.4374L6.19121 23.7541C5.75066 23.9857 5.21682 23.9472 4.81415 23.6546C4.41148 23.3621 4.20982 22.8663 4.29396 22.3757L5.49883 15.3508L0.394916 10.3757C0.0385017 10.0283 -0.0897694 9.50862 0.0640363 9.03526C0.217842 8.56189 0.62705 8.21689 1.1196 8.14532L8.17304 7.1204L11.3274 0.728898C11.5477 0.282569 12.0023 0 12.5 0Z" fill="#FDDC64"/>
</svg>
