<svg width="25" height="25" viewBox="0 0 25 25" fill="none" xmlns="http://www.w3.org/2000/svg">
<path d="M0 12.5C0 19.3945 5.60553 25 12.5 25C19.3945 25 25 19.3945 25 12.5C25 5.60553 19.3945 0 12.5 0C5.60553 0 0 5.60553 0 12.5ZM13.2103 5.49947L17.7632 10.0524C17.9472 10.2364 18.0531 10.4995 18.0531 10.7627C18.0531 11.0258 17.9482 11.2623 17.7632 11.473C17.3684 11.8677 16.7373 11.8677 16.3682 11.473L13.5003 8.60511V18.7891C13.5003 19.3421 13.0532 19.7893 12.5001 19.7893C11.9471 19.7893 11.4999 19.3421 11.4999 18.7891V8.60511L8.65753 11.4741C8.26279 11.8688 7.63163 11.8688 7.26258 11.4741C6.86784 11.0793 6.86784 10.4482 7.26258 10.0791L11.8155 5.52621C11.9995 5.34221 12.2626 5.23632 12.5258 5.23632C12.79 5.23632 13.0264 5.31547 13.2104 5.49947H13.2103Z" fill="#45F850"/>
</svg>
