<svg width="25" height="25" viewBox="0 0 25 25" fill="none" xmlns="http://www.w3.org/2000/svg">
<rect width="25" height="25" rx="12.5" fill="#F5CF40"/>
<path d="M23.1934 12.4705C23.1584 17.503 19.6645 21.8069 14.7731 22.9374C9.81057 24.0841 4.7806 21.4325 2.65182 16.8791C0.540487 12.3606 2.03913 6.74923 6.03346 3.81449C10.1128 0.817207 15.8826 1.06177 19.6459 4.45463C21.9107 6.49731 23.1736 9.43349 23.1934 12.4708C23.2009 13.5601 24.8904 13.5614 24.8842 12.4708C24.8493 7.18875 21.5112 2.47694 16.5461 0.687417C11.6557 -1.07451 5.91335 0.672444 2.70134 4.70794C-0.581594 8.83325 -0.840025 14.7219 1.97636 19.1641C4.81267 23.6401 10.2506 25.7165 15.3707 24.5336C20.9248 23.2496 24.8454 18.116 24.884 12.4708C24.8915 11.3801 23.2007 11.3814 23.1932 12.4708L23.1934 12.4705Z" fill="#232323"/>
<path fill-rule="evenodd" clip-rule="evenodd" d="M9.13398 16.8931C9.13273 15.6965 9.41349 14.5897 10.1796 13.645C11.3913 12.1514 13.1008 12.0653 14.4548 13.4192C16.3078 15.2734 16.1893 19.0695 14.2239 20.8063C13.0759 21.8196 11.7532 21.8121 10.6289 20.7576C9.51457 19.7132 9.13523 18.3743 9.13399 16.893L9.13398 16.8931Z" fill="#232323"/>
<path d="M9.2748 16.8931C9.29851 14.9527 10.4914 12.1937 12.8797 12.6553C14.7739 13.0222 15.605 15.2409 15.6337 16.9353C15.6636 18.7072 14.7864 20.8347 12.9409 21.3551C11.7604 21.6883 10.6948 20.7848 10.0709 19.8839C9.46567 19.0129 9.28722 17.9323 9.27473 16.8928C9.27224 16.7119 8.99147 16.7106 8.99272 16.8928C9.01643 18.9505 10.1544 21.8404 12.6564 21.6871C14.8289 21.5535 15.856 18.9169 15.9132 17.0826C15.9743 15.111 14.9249 12.765 12.8086 12.3558C11.799 12.1611 10.8619 12.6877 10.1981 13.4052C9.3221 14.351 9.00764 15.6363 8.99269 16.8929C8.9902 17.0751 9.27221 17.0751 9.2747 16.8929L9.2748 16.8931Z" fill="#232323"/>
<path fill-rule="evenodd" clip-rule="evenodd" d="M5.46033 9.81161C5.49527 9.0005 5.71115 8.25805 6.32133 7.68155C7.01389 7.02768 7.86738 7.13626 8.38775 7.93237C9.05533 8.95433 8.7883 10.7537 7.84869 11.5498C7.1262 12.1625 6.27019 12.0202 5.79974 11.1979C5.55641 10.7724 5.43788 10.3094 5.46033 9.81153V9.81161Z" fill="#232323"/>
<path d="M5.60121 9.81165C5.65861 8.85581 6.02547 7.74149 7.03996 7.42578C8.15303 7.08014 8.61472 8.58875 8.61597 9.38985C8.61846 10.151 8.31399 10.9372 7.74874 11.4513C6.55207 12.5381 5.59125 10.8985 5.60121 9.81162C5.60246 9.62943 5.3217 9.63068 5.3192 9.81162C5.30922 10.901 5.91816 12.2137 7.18597 12.0415C8.3552 11.8818 8.85807 10.3806 8.89925 9.38985C8.94043 8.38287 8.40635 7.18243 7.28206 7.11506C5.95311 7.0352 5.38038 8.79214 5.31924 9.81286C5.308 9.9938 5.59002 9.99255 5.60124 9.81161L5.60121 9.81165Z" fill="#232323"/>
<path fill-rule="evenodd" clip-rule="evenodd" d="M19.43 9.53824C19.4237 10.9545 18.8834 11.8056 18.1335 11.9166C17.391 12.0264 16.5899 11.3538 16.2867 10.3468C16.0596 9.58938 16.0459 8.83195 16.4065 8.10822C16.8956 7.12743 17.9089 6.97643 18.6626 7.7713C19.2191 8.35777 19.4213 9.08278 19.43 9.53821V9.53824Z" fill="#232323"/>
<path d="M19.2901 9.53823C19.2738 10.3169 19.1328 11.4012 18.2955 11.7319C17.3085 12.1225 16.5798 10.8747 16.3714 10.1197C16.1044 9.15141 16.3539 7.44561 17.6317 7.40319C18.6212 7.36825 19.2476 8.71218 19.2901 9.53823C19.2988 9.71917 19.5808 9.72041 19.5721 9.53823C19.5184 8.46883 18.7922 7.21229 17.6329 7.12119C16.3202 7.01762 15.8548 8.83571 16.0245 9.8165C16.1942 10.7936 16.9267 12.2934 18.172 12.0514C19.2988 11.833 19.5509 10.5028 19.5721 9.53698C19.5758 9.35605 19.2938 9.35605 19.2901 9.53823V9.53823Z" fill="#232323"/>
<path fill-rule="evenodd" clip-rule="evenodd" d="M7.453 3.05951C7.86103 3.03829 8.27781 3.1506 8.66216 3.37646C8.93169 3.53493 9.11264 3.75081 8.93918 4.07524C8.77946 4.37347 8.5224 4.45583 8.22168 4.28363C7.49044 3.8656 6.84283 3.99787 6.25885 4.56688C6.00305 4.81645 5.72726 4.89882 5.46647 4.60307C5.20567 4.30858 5.34418 4.04031 5.58876 3.80321C6.09661 3.31031 6.68934 3.02457 7.453 3.05952V3.05951Z" fill="#232323"/>
<path d="M7.45305 3.3416C7.77747 3.33911 8.05699 3.39776 8.35398 3.53003C8.61852 3.6024 8.62226 3.7721 8.36396 4.04165C8.28909 3.99673 8.21047 3.95804 8.12936 3.92685C7.71383 3.75589 7.32203 3.71971 6.88778 3.84075C6.70934 3.89066 6.54339 3.99548 6.39114 4.09406C6.32625 4.14397 6.26012 4.19513 6.19523 4.24629C6.15031 4.28747 6.10414 4.32865 6.05922 4.36983C5.73479 4.1864 5.68361 4.02793 5.90698 3.8944C6.33625 3.49509 6.87781 3.33413 7.45303 3.3416C7.81614 3.34659 7.81614 2.78257 7.45303 2.77759C6.64694 2.76636 5.45277 3.13946 5.11958 3.97551C4.98482 4.31367 5.08464 4.79657 5.4565 4.9638C5.85332 5.14224 6.13532 5.03992 6.4585 4.76665C6.75424 4.51708 7.01878 4.33738 7.41435 4.32118C7.755 4.30745 7.9821 4.567 8.29406 4.62066C8.70085 4.69054 8.95541 4.55827 9.18378 4.21762C9.82765 3.25305 8.06448 2.77389 7.45303 2.77762C7.08992 2.78012 7.08867 3.34413 7.45303 3.34164L7.45305 3.3416Z" fill="#232323"/>
<path fill-rule="evenodd" clip-rule="evenodd" d="M17.4695 3.05694C18.2856 3.03697 18.8871 3.35392 19.3837 3.89049C19.6058 4.13133 19.6432 4.40212 19.3862 4.64419C19.1566 4.86006 18.902 4.83636 18.6887 4.61674C18.0735 3.98657 17.3947 3.86678 16.6173 4.30478C16.339 4.46076 16.1019 4.3497 15.9547 4.08641C15.7937 3.80191 15.9197 3.57479 16.1668 3.41884C16.5811 3.1568 17.039 3.02701 17.4695 3.05697L17.4695 3.05694Z" fill="#232323"/>
<path d="M17.4695 3.33896C18.0348 3.34271 18.5102 3.49619 18.9482 3.85806C19.1666 3.99158 19.1466 4.1775 18.8883 4.41709C18.8047 4.33099 18.7161 4.25113 18.6213 4.17875C18.4628 4.04773 18.2744 3.93168 18.0797 3.8668C17.6692 3.73078 17.2811 3.74576 16.8706 3.87803C16.7945 3.91047 16.7171 3.94291 16.641 3.97411C16.2429 3.80066 16.1855 3.66465 16.4663 3.56858C16.772 3.39138 17.1202 3.33149 17.4695 3.33897C17.8326 3.34771 17.8326 2.78368 17.4695 2.77496C16.933 2.76248 15.2534 3.13185 15.624 4.02278C15.7401 4.30354 15.9846 4.69911 16.354 4.65668C16.9592 4.58556 17.3597 4.15631 18.0024 4.4458C18.3605 4.60677 18.7049 5.2132 19.1779 5.06223C19.5871 4.93121 19.8529 4.62922 19.8367 4.18999C19.8217 3.77321 19.3338 3.43629 19.0344 3.21792C18.5826 2.88851 18.0149 2.77868 17.4696 2.77494C17.1065 2.7737 17.1065 3.33646 17.4696 3.33896L17.4695 3.33896Z" fill="#232323"/>
</svg>
