<svg width="21" height="10" viewBox="0 0 21 10" fill="none" xmlns="http://www.w3.org/2000/svg">
<rect width="21" height="10" rx="5" fill="#4F4C4C"/>
<path d="M6.88867 5.61133C6.8457 6.06641 6.67773 6.42188 6.38477 6.67773C6.0918 6.93164 5.70215 7.05859 5.21582 7.05859C4.87598 7.05859 4.57617 6.97852 4.31641 6.81836C4.05859 6.65625 3.85938 6.42676 3.71875 6.12988C3.57812 5.83301 3.50488 5.48828 3.49902 5.0957V4.69727C3.49902 4.29492 3.57031 3.94043 3.71289 3.63379C3.85547 3.32715 4.05957 3.09082 4.3252 2.9248C4.59277 2.75879 4.90137 2.67578 5.25098 2.67578C5.72168 2.67578 6.10059 2.80371 6.3877 3.05957C6.6748 3.31543 6.8418 3.67676 6.88867 4.14355H6.15039C6.11523 3.83691 6.02539 3.61621 5.88086 3.48145C5.73828 3.34473 5.52832 3.27637 5.25098 3.27637C4.92871 3.27637 4.68066 3.39453 4.50684 3.63086C4.33496 3.86523 4.24707 4.20996 4.24316 4.66504V5.04297C4.24316 5.50391 4.3252 5.85547 4.48926 6.09766C4.65527 6.33984 4.89746 6.46094 5.21582 6.46094C5.50684 6.46094 5.72559 6.39551 5.87207 6.26465C6.01855 6.13379 6.11133 5.91602 6.15039 5.61133H6.88867ZM9.37891 7C9.34766 6.93945 9.32031 6.84082 9.29688 6.7041C9.07031 6.94043 8.79297 7.05859 8.46484 7.05859C8.14648 7.05859 7.88672 6.96777 7.68555 6.78613C7.48438 6.60449 7.38379 6.37988 7.38379 6.1123C7.38379 5.77441 7.50879 5.51562 7.75879 5.33594C8.01074 5.1543 8.37012 5.06348 8.83691 5.06348H9.27344V4.85547C9.27344 4.69141 9.22754 4.56055 9.13574 4.46289C9.04395 4.36328 8.9043 4.31348 8.7168 4.31348C8.55469 4.31348 8.42188 4.35449 8.31836 4.43652C8.21484 4.5166 8.16309 4.61914 8.16309 4.74414H7.45117C7.45117 4.57031 7.50879 4.4082 7.62402 4.25781C7.73926 4.10547 7.89551 3.98633 8.09277 3.90039C8.29199 3.81445 8.51367 3.77148 8.75781 3.77148C9.12891 3.77148 9.4248 3.86523 9.64551 4.05273C9.86621 4.23828 9.97949 4.5 9.98535 4.83789V6.26758C9.98535 6.55273 10.0254 6.78027 10.1055 6.9502V7H9.37891ZM8.59668 6.4873C8.7373 6.4873 8.86914 6.45312 8.99219 6.38477C9.11719 6.31641 9.21094 6.22461 9.27344 6.10938V5.51172H8.88965C8.62598 5.51172 8.42773 5.55762 8.29492 5.64941C8.16211 5.74121 8.0957 5.87109 8.0957 6.03906C8.0957 6.17578 8.14062 6.28516 8.23047 6.36719C8.32227 6.44727 8.44434 6.4873 8.59668 6.4873ZM12.5078 6.13867C12.5078 6.01172 12.4551 5.91504 12.3496 5.84863C12.2461 5.78223 12.0732 5.72363 11.8311 5.67285C11.5889 5.62207 11.3867 5.55762 11.2246 5.47949C10.8691 5.30762 10.6914 5.05859 10.6914 4.73242C10.6914 4.45898 10.8066 4.23047 11.0371 4.04688C11.2676 3.86328 11.5605 3.77148 11.916 3.77148C12.2949 3.77148 12.6006 3.86523 12.833 4.05273C13.0674 4.24023 13.1846 4.4834 13.1846 4.78223H12.4727C12.4727 4.64551 12.4219 4.53223 12.3203 4.44238C12.2188 4.35059 12.084 4.30469 11.916 4.30469C11.7598 4.30469 11.6318 4.34082 11.5322 4.41309C11.4346 4.48535 11.3857 4.58203 11.3857 4.70312C11.3857 4.8125 11.4316 4.89746 11.5234 4.95801C11.6152 5.01855 11.8008 5.08008 12.0801 5.14258C12.3594 5.20312 12.5781 5.27637 12.7363 5.3623C12.8965 5.44629 13.0146 5.54785 13.0908 5.66699C13.1689 5.78613 13.208 5.93066 13.208 6.10059C13.208 6.38574 13.0898 6.61719 12.8535 6.79492C12.6172 6.9707 12.3076 7.05859 11.9248 7.05859C11.665 7.05859 11.4336 7.01172 11.2305 6.91797C11.0273 6.82422 10.8691 6.69531 10.7559 6.53125C10.6426 6.36719 10.5859 6.19043 10.5859 6.00098H11.2773C11.2871 6.16895 11.3506 6.29883 11.4678 6.39062C11.585 6.48047 11.7402 6.52539 11.9336 6.52539C12.1211 6.52539 12.2637 6.49023 12.3613 6.41992C12.459 6.34766 12.5078 6.25391 12.5078 6.13867ZM14.5322 4.17578C14.7646 3.90625 15.0586 3.77148 15.4141 3.77148C16.0898 3.77148 16.4326 4.15723 16.4424 4.92871V7H15.7305V4.95508C15.7305 4.73633 15.6826 4.58203 15.5869 4.49219C15.4932 4.40039 15.3545 4.35449 15.1709 4.35449C14.8857 4.35449 14.6729 4.48145 14.5322 4.73535V7H13.8203V2.5H14.5322V4.17578Z" fill="white"/>
</svg>
