<svg width="21" height="10" viewBox="0 0 21 10" fill="none" xmlns="http://www.w3.org/2000/svg">
<rect width="21" height="10" rx="5" fill="#4F4C4C"/>
<path d="M2.86621 7V2.73438H4.12598C4.50293 2.73438 4.83691 2.81836 5.12793 2.98633C5.4209 3.1543 5.64746 3.39258 5.80762 3.70117C5.96777 4.00977 6.04785 4.36328 6.04785 4.76172V4.97559C6.04785 5.37988 5.9668 5.73535 5.80469 6.04199C5.64453 6.34863 5.41504 6.58496 5.11621 6.75098C4.81934 6.91699 4.47852 7 4.09375 7H2.86621ZM3.60742 3.33203V6.4082H4.09082C4.47949 6.4082 4.77734 6.28711 4.98438 6.04492C5.19336 5.80078 5.2998 5.45117 5.30371 4.99609V4.75879C5.30371 4.2959 5.20312 3.94238 5.00195 3.69824C4.80078 3.4541 4.50879 3.33203 4.12598 3.33203H3.60742ZM6.58398 5.38574C6.58398 5.0752 6.64551 4.7959 6.76855 4.54785C6.8916 4.29785 7.06445 4.10645 7.28711 3.97363C7.50977 3.83887 7.76562 3.77148 8.05469 3.77148C8.48242 3.77148 8.8291 3.90918 9.09473 4.18457C9.3623 4.45996 9.50684 4.8252 9.52832 5.28027L9.53125 5.44727C9.53125 5.75977 9.4707 6.03906 9.34961 6.28516C9.23047 6.53125 9.05859 6.72168 8.83398 6.85645C8.61133 6.99121 8.35352 7.05859 8.06055 7.05859C7.61328 7.05859 7.25488 6.91016 6.98535 6.61328C6.71777 6.31445 6.58398 5.91699 6.58398 5.4209V5.38574ZM7.2959 5.44727C7.2959 5.77344 7.36328 6.0293 7.49805 6.21484C7.63281 6.39844 7.82031 6.49023 8.06055 6.49023C8.30078 6.49023 8.4873 6.39648 8.62012 6.20898C8.75488 6.02148 8.82227 5.74707 8.82227 5.38574C8.82227 5.06543 8.75293 4.81152 8.61426 4.62402C8.47754 4.43652 8.29102 4.34277 8.05469 4.34277C7.82227 4.34277 7.6377 4.43555 7.50098 4.62109C7.36426 4.80469 7.2959 5.08008 7.2959 5.44727ZM12.918 6.01855L13.4219 3.83008H14.1162L13.252 7H12.666L11.9863 4.82324L11.3184 7H10.7324L9.86523 3.83008H10.5596L11.0723 5.99512L11.7227 3.83008H12.2588L12.918 6.01855ZM15.2529 3.83008L15.2734 4.19629C15.5078 3.91309 15.8154 3.77148 16.1963 3.77148C16.8564 3.77148 17.1924 4.14941 17.2041 4.90527V7H16.4922V4.94629C16.4922 4.74512 16.4482 4.59668 16.3604 4.50098C16.2744 4.40332 16.1328 4.35449 15.9355 4.35449C15.6484 4.35449 15.4346 4.48438 15.2939 4.74414V7H14.582V3.83008H15.2529Z" fill="white"/>
</svg>
