<svg width="21" height="10" viewBox="0 0 21 10" fill="none" xmlns="http://www.w3.org/2000/svg">
<rect width="21" height="10" rx="5" fill="#4F4C4C"/>
<path d="M6.77441 7H6.03613V5.10449H4.12891V7H3.3877V2.73438H4.12891V4.50977H6.03613V2.73438H6.77441V7ZM9.47852 7C9.44727 6.93945 9.41992 6.84082 9.39648 6.7041C9.16992 6.94043 8.89258 7.05859 8.56445 7.05859C8.24609 7.05859 7.98633 6.96777 7.78516 6.78613C7.58398 6.60449 7.4834 6.37988 7.4834 6.1123C7.4834 5.77441 7.6084 5.51562 7.8584 5.33594C8.11035 5.1543 8.46973 5.06348 8.93652 5.06348H9.37305V4.85547C9.37305 4.69141 9.32715 4.56055 9.23535 4.46289C9.14355 4.36328 9.00391 4.31348 8.81641 4.31348C8.6543 4.31348 8.52148 4.35449 8.41797 4.43652C8.31445 4.5166 8.2627 4.61914 8.2627 4.74414H7.55078C7.55078 4.57031 7.6084 4.4082 7.72363 4.25781C7.83887 4.10547 7.99512 3.98633 8.19238 3.90039C8.3916 3.81445 8.61328 3.77148 8.85742 3.77148C9.22852 3.77148 9.52441 3.86523 9.74512 4.05273C9.96582 4.23828 10.0791 4.5 10.085 4.83789V6.26758C10.085 6.55273 10.125 6.78027 10.2051 6.9502V7H9.47852ZM8.69629 6.4873C8.83691 6.4873 8.96875 6.45312 9.0918 6.38477C9.2168 6.31641 9.31055 6.22461 9.37305 6.10938V5.51172H8.98926C8.72559 5.51172 8.52734 5.55762 8.39453 5.64941C8.26172 5.74121 8.19531 5.87109 8.19531 6.03906C8.19531 6.17578 8.24023 6.28516 8.33008 6.36719C8.42188 6.44727 8.54395 6.4873 8.69629 6.4873ZM11.5322 4.17578C11.7646 3.90625 12.0586 3.77148 12.4141 3.77148C13.0898 3.77148 13.4326 4.15723 13.4424 4.92871V7H12.7305V4.95508C12.7305 4.73633 12.6826 4.58203 12.5869 4.49219C12.4932 4.40039 12.3545 4.35449 12.1709 4.35449C11.8857 4.35449 11.6729 4.48145 11.5322 4.73535V7H10.8203V2.5H11.5322V4.17578ZM16.0586 7C16.0273 6.93945 16 6.84082 15.9766 6.7041C15.75 6.94043 15.4727 7.05859 15.1445 7.05859C14.8262 7.05859 14.5664 6.96777 14.3652 6.78613C14.1641 6.60449 14.0635 6.37988 14.0635 6.1123C14.0635 5.77441 14.1885 5.51562 14.4385 5.33594C14.6904 5.1543 15.0498 5.06348 15.5166 5.06348H15.9531V4.85547C15.9531 4.69141 15.9072 4.56055 15.8154 4.46289C15.7236 4.36328 15.584 4.31348 15.3965 4.31348C15.2344 4.31348 15.1016 4.35449 14.998 4.43652C14.8945 4.5166 14.8428 4.61914 14.8428 4.74414H14.1309C14.1309 4.57031 14.1885 4.4082 14.3037 4.25781C14.4189 4.10547 14.5752 3.98633 14.7725 3.90039C14.9717 3.81445 15.1934 3.77148 15.4375 3.77148C15.8086 3.77148 16.1045 3.86523 16.3252 4.05273C16.5459 4.23828 16.6592 4.5 16.665 4.83789V6.26758C16.665 6.55273 16.7051 6.78027 16.7852 6.9502V7H16.0586ZM15.2764 6.4873C15.417 6.4873 15.5488 6.45312 15.6719 6.38477C15.7969 6.31641 15.8906 6.22461 15.9531 6.10938V5.51172H15.5693C15.3057 5.51172 15.1074 5.55762 14.9746 5.64941C14.8418 5.74121 14.7754 5.87109 14.7754 6.03906C14.7754 6.17578 14.8203 6.28516 14.9102 6.36719C15.002 6.44727 15.124 6.4873 15.2764 6.4873Z" fill="white"/>
</svg>
