<svg width="21" height="10" viewBox="0 0 21 10" fill="none" xmlns="http://www.w3.org/2000/svg">
<rect width="21" height="10" rx="5" fill="#4F4C4C"/>
<path d="M7.67578 5.90137C7.67578 5.71387 7.60938 5.56934 7.47656 5.46777C7.3457 5.36621 7.1084 5.26367 6.76465 5.16016C6.4209 5.05664 6.14746 4.94141 5.94434 4.81445C5.55566 4.57031 5.36133 4.25195 5.36133 3.85938C5.36133 3.51562 5.50098 3.23242 5.78027 3.00977C6.06152 2.78711 6.42578 2.67578 6.87305 2.67578C7.16992 2.67578 7.43457 2.73047 7.66699 2.83984C7.89941 2.94922 8.08203 3.10547 8.21484 3.30859C8.34766 3.50977 8.41406 3.7334 8.41406 3.97949H7.67578C7.67578 3.75684 7.60547 3.58301 7.46484 3.45801C7.32617 3.33105 7.12695 3.26758 6.86719 3.26758C6.625 3.26758 6.43652 3.31934 6.30176 3.42285C6.16895 3.52637 6.10254 3.6709 6.10254 3.85645C6.10254 4.0127 6.1748 4.14355 6.31934 4.24902C6.46387 4.35254 6.70215 4.4541 7.03418 4.55371C7.36621 4.65137 7.63281 4.76367 7.83398 4.89062C8.03516 5.01562 8.18262 5.16016 8.27637 5.32422C8.37012 5.48633 8.41699 5.67676 8.41699 5.89551C8.41699 6.25098 8.28027 6.53418 8.00684 6.74512C7.73535 6.9541 7.36621 7.05859 6.89941 7.05859C6.59082 7.05859 6.30664 7.00195 6.04688 6.88867C5.78906 6.77344 5.58789 6.61523 5.44336 6.41406C5.30078 6.21289 5.22949 5.97852 5.22949 5.71094H5.9707C5.9707 5.95312 6.05078 6.14062 6.21094 6.27344C6.37109 6.40625 6.60059 6.47266 6.89941 6.47266C7.15723 6.47266 7.35059 6.4209 7.47949 6.31738C7.61035 6.21191 7.67578 6.07324 7.67578 5.90137ZM9.89062 3.05957V3.83008H10.4502V4.35742H9.89062V6.12695C9.89062 6.24805 9.91406 6.33594 9.96094 6.39062C10.0098 6.44336 10.0957 6.46973 10.2188 6.46973C10.3008 6.46973 10.3838 6.45996 10.4678 6.44043V6.99121C10.3057 7.03613 10.1494 7.05859 9.99902 7.05859C9.45215 7.05859 9.17871 6.75684 9.17871 6.15332V4.35742H8.65723V3.83008H9.17871V3.05957H9.89062ZM12.8906 7C12.8594 6.93945 12.832 6.84082 12.8086 6.7041C12.582 6.94043 12.3047 7.05859 11.9766 7.05859C11.6582 7.05859 11.3984 6.96777 11.1973 6.78613C10.9961 6.60449 10.8955 6.37988 10.8955 6.1123C10.8955 5.77441 11.0205 5.51562 11.2705 5.33594C11.5225 5.1543 11.8818 5.06348 12.3486 5.06348H12.7852V4.85547C12.7852 4.69141 12.7393 4.56055 12.6475 4.46289C12.5557 4.36328 12.416 4.31348 12.2285 4.31348C12.0664 4.31348 11.9336 4.35449 11.8301 4.43652C11.7266 4.5166 11.6748 4.61914 11.6748 4.74414H10.9629C10.9629 4.57031 11.0205 4.4082 11.1357 4.25781C11.251 4.10547 11.4072 3.98633 11.6045 3.90039C11.8037 3.81445 12.0254 3.77148 12.2695 3.77148C12.6406 3.77148 12.9365 3.86523 13.1572 4.05273C13.3779 4.23828 13.4912 4.5 13.4971 4.83789V6.26758C13.4971 6.55273 13.5371 6.78027 13.6172 6.9502V7H12.8906ZM12.1084 6.4873C12.249 6.4873 12.3809 6.45312 12.5039 6.38477C12.6289 6.31641 12.7227 6.22461 12.7852 6.10938V5.51172H12.4014C12.1377 5.51172 11.9395 5.55762 11.8066 5.64941C11.6738 5.74121 11.6074 5.87109 11.6074 6.03906C11.6074 6.17578 11.6523 6.28516 11.7422 6.36719C11.834 6.44727 11.9561 6.4873 12.1084 6.4873ZM15.9023 4.48047C15.8086 4.46484 15.7119 4.45703 15.6123 4.45703C15.2861 4.45703 15.0664 4.58203 14.9531 4.83203V7H14.2412V3.83008H14.9209L14.9385 4.18457C15.1104 3.90918 15.3486 3.77148 15.6533 3.77148C15.7549 3.77148 15.8389 3.78516 15.9053 3.8125L15.9023 4.48047Z" fill="white"/>
</svg>
