<svg width="21" height="10" viewBox="0 0 21 10" fill="none" xmlns="http://www.w3.org/2000/svg">
<rect width="21" height="10" rx="5" fill="#4F4C4C"/>
<path d="M10.4062 2.73438V5.58496C10.4062 6.03809 10.2607 6.39746 9.96973 6.66309C9.68066 6.92676 9.29492 7.05859 8.8125 7.05859C8.32422 7.05859 7.93652 6.92871 7.64941 6.66895C7.3623 6.40723 7.21875 6.04492 7.21875 5.58203V2.73438H7.95703V5.58789C7.95703 5.87305 8.0293 6.09082 8.17383 6.24121C8.31836 6.3916 8.53125 6.4668 8.8125 6.4668C9.38281 6.4668 9.66797 6.16602 9.66797 5.56445V2.73438H10.4062ZM13.9072 5.44727C13.9072 5.9375 13.7959 6.3291 13.5732 6.62207C13.3506 6.91309 13.0518 7.05859 12.6768 7.05859C12.3291 7.05859 12.0508 6.94434 11.8418 6.71582V8.21875H11.1299V3.83008H11.7861L11.8154 4.15234C12.0244 3.89844 12.3086 3.77148 12.668 3.77148C13.0547 3.77148 13.3574 3.91602 13.5762 4.20508C13.7969 4.49219 13.9072 4.8916 13.9072 5.40332V5.44727ZM13.1982 5.38574C13.1982 5.06934 13.1348 4.81836 13.0078 4.63281C12.8828 4.44727 12.7031 4.35449 12.4688 4.35449C12.1777 4.35449 11.9688 4.47461 11.8418 4.71484V6.12109C11.9707 6.36719 12.1816 6.49023 12.4746 6.49023C12.7012 6.49023 12.8779 6.39941 13.0049 6.21777C13.1338 6.03418 13.1982 5.75684 13.1982 5.38574Z" fill="white"/>
</svg>
