<svg width="21" height="10" viewBox="0 0 21 10" fill="none" xmlns="http://www.w3.org/2000/svg">
<rect width="21" height="10" rx="5" fill="#4F4C4C"/>
<path d="M7.24902 5.94531L7.90527 2.73438H8.64062L7.65625 7H6.94727L6.13574 3.88574L5.30664 7H4.59473L3.61035 2.73438H4.3457L5.00781 5.93945L5.82227 2.73438H6.44336L7.24902 5.94531ZM8.88672 5.38574C8.88672 5.0752 8.94824 4.7959 9.07129 4.54785C9.19434 4.29785 9.36719 4.10645 9.58984 3.97363C9.8125 3.83887 10.0684 3.77148 10.3574 3.77148C10.7852 3.77148 11.1318 3.90918 11.3975 4.18457C11.665 4.45996 11.8096 4.8252 11.8311 5.28027L11.834 5.44727C11.834 5.75977 11.7734 6.03906 11.6523 6.28516C11.5332 6.53125 11.3613 6.72168 11.1367 6.85645C10.9141 6.99121 10.6562 7.05859 10.3633 7.05859C9.91602 7.05859 9.55762 6.91016 9.28809 6.61328C9.02051 6.31445 8.88672 5.91699 8.88672 5.4209V5.38574ZM9.59863 5.44727C9.59863 5.77344 9.66602 6.0293 9.80078 6.21484C9.93555 6.39844 10.123 6.49023 10.3633 6.49023C10.6035 6.49023 10.79 6.39648 10.9229 6.20898C11.0576 6.02148 11.125 5.74707 11.125 5.38574C11.125 5.06543 11.0557 4.81152 10.917 4.62402C10.7803 4.43652 10.5938 4.34277 10.3574 4.34277C10.125 4.34277 9.94043 4.43555 9.80371 4.62109C9.66699 4.80469 9.59863 5.08008 9.59863 5.44727ZM15.2207 6.01855L15.7246 3.83008H16.4189L15.5547 7H14.9688L14.2891 4.82324L13.6211 7H13.0352L12.168 3.83008H12.8623L13.375 5.99512L14.0254 3.83008H14.5615L15.2207 6.01855Z" fill="white"/>
</svg>
